<svg width="64.000000" height="64.000000" viewBox="0 0 64 64" fill="none" xmlns="http://www.w3.org/2000/svg" xmlns:xlink="http://www.w3.org/1999/xlink">
	<desc>
			Created with Pixso.
	</desc>
	<defs>
		<clipPath id="clip64_190">
			<rect id="fi_2087863" rx="0.000000" width="63.000000" height="63.000000" transform="translate(0.500000 0.500000)" fill="white" fill-opacity="0"/>
		</clipPath>
	</defs>
	<rect id="fi_2087863" rx="0.000000" width="63.000000" height="63.000000" transform="translate(0.500000 0.500000)" fill="#FFFFFF" fill-opacity="0"/>
	<g clip-path="url(#clip64_190)">
		<path id="Vector" d="M0 32L0 59.42L27.42 59.42L27.42 32L9.14 32C9.14 21.91 17.34 13.71 27.42 13.71L27.42 4.57C12.3 4.57 0 16.87 0 32Z" fill="#0E0E0E" fill-opacity="0.300000" fill-rule="nonzero"/>
		<path id="Vector" d="M64 13.71L64 4.57C48.87 4.57 36.57 16.87 36.57 32L36.57 59.42L64 59.42L64 32L45.71 32C45.71 21.91 53.91 13.71 64 13.71Z" fill="#0E0E0E" fill-opacity="0.300000" fill-rule="nonzero"/>
	</g>
</svg>


