<svg width="62.000000" height="62.000000" viewBox="0 0 62 62" fill="none" xmlns="http://www.w3.org/2000/svg" xmlns:xlink="http://www.w3.org/1999/xlink">
	<desc>
			Created with Pixso.
	</desc>
	<defs/>
	<path id="Vector" d="M40 43C40 40.65 40 38.86 40 38.86C46.52 35.57 51 28.8 51 21C51 9.95 42.04 1 31 1C19.95 1 11 9.95 11 21C11 28.8 15.47 35.57 22 38.86L22 43L40 43Z" fill="#FFC239" fill-opacity="1.000000" fill-rule="nonzero"/>
	<path id="Vector" d="M31 1C25.24 1 20.07 3.44 16.42 7.33C18.7 21.84 30.16 33.3 44.67 35.58C48.56 31.93 51 26.75 51 21C51 9.95 42.04 1 31 1Z" fill="#FFD55D" fill-opacity="1.000000" fill-rule="nonzero"/>
	<path id="Vector" d="M42.93 8.11C45.51 10.49 46.64 13.47 45.44 14.77C44.25 16.06 41.19 15.18 38.61 12.8C36.02 10.41 34.9 7.43 36.09 6.14C37.28 4.85 40.34 5.73 42.93 8.11Z" fill="#FFF7DF" fill-opacity="1.000000" fill-rule="evenodd"/>
	<path id="Vector" d="M29 43L27 43L27 27.41L24.29 24.7L25.7 23.29L28.7 26.29C28.89 26.48 29 26.73 29 27L29 43Z" fill="#F1F1F3" fill-opacity="1.000000" fill-rule="nonzero"/>
	<path id="Vector" d="M35 43L33 43L33 27C33 26.73 33.1 26.48 33.29 26.29L36.29 23.29L37.7 24.7L35 27.41L35 43Z" fill="#F1F1F3" fill-opacity="1.000000" fill-rule="nonzero"/>
	<path id="Vector" d="M58.96 11.21C60.77 10.17 62 8.22 62 6C62 2.69 59.3 0 56 0C53.76 0 51.81 1.22 50.78 3.04C45.5 3.36 38.37 6.76 31 12.29C19.73 3.85 9.28 0.61 4.94 4.95C1.97 7.92 2.41 13.68 6.15 21.19C5.44 21.92 5 22.9 5 24C5 26.2 6.79 28 9 28C11.2 28 13 26.2 13 24C13 21.79 11.2 20 9 20C8.6 20 8.23 20.07 7.87 20.18C4.7 13.73 4.12 8.6 6.36 6.36C9.53 3.19 18.65 5.64 29.35 13.55C26.55 15.75 23.74 18.25 21 21C10.47 31.53 3.51 43.11 3.04 50.78C1.22 51.81 0 53.76 0 56C0 59.3 2.69 62 6 62C8.23 62 10.18 60.77 11.21 58.95C14.47 58.75 18.54 57.36 23.01 54.9L26.75 53.13L25.9 51.32L22.1 53.12C18.23 55.25 14.75 56.53 11.92 56.89C11.97 56.6 12 56.3 12 56C12 52.69 9.3 50 6 50C5.69 50 5.39 50.03 5.1 50.07C5.99 42.94 12.74 32.08 22.41 22.41C25.22 19.6 28.13 17.05 31.02 14.81C33.81 16.98 36.68 19.51 39.58 22.41C43.66 26.49 47.31 30.88 50.19 35.15C49.46 35.87 49 36.88 49 38C49 40.2 50.79 42 53 42C53.39 42 53.76 41.92 54.12 41.82C57.29 48.26 57.87 53.39 55.63 55.63C53.15 58.11 47.26 57.18 39.85 53.1L36.94 51.67L36.06 53.46L38.93 54.87C43.88 57.6 48.22 58.98 51.6 58.98C53.9 58.98 55.75 58.34 57.04 57.04C60.02 54.07 59.58 48.31 55.84 40.8C56.55 40.07 57 39.09 57 38C57 35.79 55.2 34 53 34C52.63 34 52.28 34.06 51.94 34.16C51.23 33.11 50.49 32.05 49.7 31C55.3 23.51 58.64 16.37 58.96 11.21ZM11 24C11 25.1 10.1 26 9 26C7.89 26 7 25.1 7 24C7 22.89 7.89 22 9 22C10.1 22 11 22.89 11 24ZM10 56C10 58.2 8.2 60 6 60C3.79 60 2 58.2 2 56C2 53.79 3.79 52 6 52C8.2 52 10 53.79 10 56ZM55 38C55 39.1 54.1 40 53 40C51.89 40 51 39.1 51 38C51 36.89 51.89 36 53 36C54.1 36 55 36.89 55 38ZM56 2C58.2 2 60 3.79 60 6C60 8.2 58.2 10 56 10C53.79 10 52 8.2 52 6C52 3.79 53.79 2 56 2ZM32.66 13.56C39.14 8.78 45.4 5.68 50.07 5.1C50.03 5.39 50 5.69 50 6C50 9.3 52.69 12 56 12C56.3 12 56.59 11.97 56.88 11.92C56.3 16.5 53.24 22.82 48.43 29.35C46.19 26.51 43.68 23.69 41 21C38.23 18.24 35.43 15.75 32.66 13.56Z" fill="#5490F5" fill-opacity="1.000000" fill-rule="nonzero"/>
	<path id="Vector" d="M22 47L22 50L40 50C40 49.06 40 48.04 40 47L22 47Z" fill="#393A3A" fill-opacity="1.000000" fill-rule="nonzero"/>
	<path id="Vector" d="M38 54C38 57.86 34.86 61 31 61C27.13 61 24 57.86 24 54L38 54Z" fill="#393A3A" fill-opacity="1.000000" fill-rule="nonzero"/>
	<path id="Vector" d="M41 47L21 47C20.44 47 20 46.55 20 46L20 44C20 43.44 20.44 43 21 43L41 43C41.55 43 42 43.44 42 44L42 46C42 46.55 41.55 47 41 47Z" fill="#D5D6D8" fill-opacity="1.000000" fill-rule="nonzero"/>
	<path id="Vector" d="M41 43L22 43L22 44C22 45.1 22.89 46 24 46L42 46L42 44C42 43.44 41.55 43 41 43Z" fill="#F1F1F3" fill-opacity="1.000000" fill-rule="nonzero"/>
	<path id="Vector" d="M41 54L21 54C20.44 54 20 53.55 20 53L20 51C20 50.44 20.44 50 21 50L41 50C41.55 50 42 50.44 42 51L42 53C42 53.55 41.55 54 41 54Z" fill="#D5D6D8" fill-opacity="1.000000" fill-rule="nonzero"/>
	<path id="Vector" d="M41 50L22 50L22 51C22 52.1 22.89 53 24 53L42 53L42 51C42 50.44 41.55 50 41 50Z" fill="#F1F1F3" fill-opacity="1.000000" fill-rule="nonzero"/>
	<path id="Vector" d="M56 0C53.76 0 51.81 1.22 50.78 3.04C45.5 3.36 38.37 6.76 31 12.29C24.05 7.08 17.42 3.87 12.33 3.17C12.41 3.86 12.5 4.55 12.6 5.23C16.95 5.97 22.86 8.75 29.35 13.55C26.55 15.75 23.74 18.25 21 21C20.15 21.84 19.35 22.68 18.55 23.54C18.88 24.16 19.22 24.77 19.57 25.38C20.49 24.38 21.43 23.39 22.41 22.41C25.22 19.6 28.13 17.05 31.02 14.81C33.81 16.98 36.68 19.51 39.58 22.41C43.66 26.49 47.31 30.88 50.19 35.15C49.46 35.87 49 36.88 49 38C49 40.2 50.79 42 53 42C53.39 42 53.76 41.92 54.12 41.82C56.29 46.23 57.25 50.03 56.92 52.7C57.57 52.84 58.23 52.97 58.89 53.09C59.34 49.95 58.31 45.76 55.84 40.8C56.55 40.07 57 39.09 57 38C57 35.79 55.2 34 53 34C52.63 34 52.28 34.06 51.94 34.16C51.23 33.11 50.49 32.05 49.7 31C55.3 23.51 58.64 16.37 58.96 11.21C60.77 10.17 62 8.22 62 6C62 2.69 59.3 0 56 0ZM53 36C54.1 36 55 36.89 55 38C55 39.1 54.1 40 53 40C51.89 40 51 39.1 51 38C51 36.89 51.89 36 53 36ZM48.43 29.35C46.19 26.51 43.68 23.69 41 21C38.23 18.23 35.43 15.75 32.66 13.56C39.14 8.78 45.4 5.68 50.07 5.1C50.03 5.39 50 5.69 50 6C50 9.3 52.69 12 56 12C56.3 12 56.59 11.97 56.88 11.92C56.3 16.5 53.24 22.82 48.43 29.35ZM56 10C53.79 10 52 8.2 52 6C52 3.79 53.79 2 56 2C58.2 2 60 3.79 60 6C60 8.2 58.2 10 56 10Z" fill="#81B4FC" fill-opacity="1.000000" fill-rule="nonzero"/>
</svg>
